<?xml version="1.0" encoding="utf-8"?>
<!-- Generator: Adobe Illustrator 22.0.1, SVG Export Plug-In . SVG Version: 6.00 Build 0)  -->
<svg version="1.1" id="Layer_1" xmlns="http://www.w3.org/2000/svg" xmlns:xlink="http://www.w3.org/1999/xlink" x="0px" y="0px"
	 viewBox="0 0 100 100" style="enable-background:new 0 0 100 100;" xml:space="preserve">
<g>
	<path d="M18.603,60.623c-0.553,0-1,0.448-1,1v4.121c0,0.552,0.447,1,1,1c0.553,0,1-0.448,1-1v-4.121
		C19.603,61.07,19.156,60.623,18.603,60.623z"/>
	<path d="M72.144,84.953h8.609c0.553,0,1-0.448,1-1v-9c0-0.552-0.447-1-1-1h-8.609c-0.553,0-1,0.448-1,1v9
		C71.144,84.505,71.591,84.953,72.144,84.953z M73.144,75.954h6.609v7h-6.609V75.954z"/>
	<path d="M57.611,84.953h8.609c0.553,0,1-0.448,1-1v-9c0-0.552-0.447-1-1-1h-8.609c-0.553,0-1,0.448-1,1v9
		C56.611,84.505,57.059,84.953,57.611,84.953z M58.611,75.954h6.609v7h-6.609V75.954z"/>
	<path d="M43.079,84.953h8.609c0.553,0,1-0.448,1-1v-9c0-0.552-0.447-1-1-1h-8.609c-0.553,0-1,0.448-1,1v9
		C42.079,84.505,42.526,84.953,43.079,84.953z M44.079,75.954h6.609v7h-6.609V75.954z"/>
	<path d="M89.014,10.036h-78c-0.553,0-1,0.448-1,1v25.403c0,1.866,0.887,3.526,2.259,4.597v48.001c0,0.552,0.447,1,1,1h73.734
		c0.553,0,1-0.448,1-1v-48.21c1.227-1.072,2.007-2.639,2.007-4.388V11.036C90.014,10.483,89.566,10.036,89.014,10.036z
		 M70.514,12.036h7.75v24.403c0,2.12-1.738,3.845-3.875,3.845c-2.137,0-3.875-1.725-3.875-3.845V12.036z M60.764,12.036h7.75v24.403
		c0,2.12-1.738,3.845-3.875,3.845c-2.137,0-3.875-1.725-3.875-3.845V12.036z M51.014,12.036h7.75v24.403
		c0,2.12-1.738,3.845-3.875,3.845s-3.875-1.725-3.875-3.845V12.036z M41.264,12.036h7.75v24.403c0,2.12-1.738,3.845-3.875,3.845
		s-3.875-1.725-3.875-3.845V12.036z M31.514,12.036h7.75v24.403c0,2.12-1.738,3.845-3.875,3.845c-2.137,0-3.875-1.725-3.875-3.845
		V12.036z M21.764,12.036h7.75v24.403c0,2.12-1.738,3.845-3.875,3.845c-2.137,0-3.875-1.725-3.875-3.845V12.036z M12.014,36.438
		V12.036h7.75v24.403c0,2.12-1.738,3.845-3.875,3.845C13.752,40.283,12.014,38.559,12.014,36.438z M35.895,88.036H14.272V84.37
		h21.623V88.036z M35.895,82.37H14.272V42.053c0.514,0.147,1.055,0.23,1.616,0.23c2.028,0,3.819-1.028,4.875-2.587
		c1.056,1.559,2.847,2.587,4.875,2.587c2.028,0,3.819-1.028,4.875-2.587c1.056,1.559,2.847,2.587,4.875,2.587
		c0.171,0,0.339-0.011,0.507-0.025V82.37z M86.007,88.036H37.895V70.938h48.111V88.036z M86.007,68.938H75.535v-4.716h5.517
		c0.553,0,1-0.448,1-1c0-0.552-0.447-1-1-1H68.018c-0.553,0-1,0.448-1,1c0,0.552,0.447,1,1,1h5.518v4.716H50.479v-4.716h5.518
		c0.553,0,1-0.448,1-1c0-0.552-0.447-1-1-1H42.962c-0.553,0-1,0.448-1,1c0,0.552,0.447,1,1,1h5.517v4.716H37.895V41.716
		c0.959-0.453,1.779-1.151,2.368-2.02c1.056,1.559,2.847,2.587,4.875,2.587c2.028,0,3.819-1.028,4.875-2.587
		c1.056,1.559,2.847,2.587,4.875,2.587c2.028,0,3.819-1.028,4.875-2.587c1.056,1.559,2.847,2.587,4.875,2.587
		c2.028,0,3.819-1.028,4.875-2.587c1.056,1.559,2.847,2.587,4.875,2.587c2.028,0,3.819-1.028,4.875-2.587
		c1.056,1.559,2.847,2.587,4.875,2.587c0.653,0,1.28-0.111,1.868-0.308V68.938z M88.014,36.438c0,2.12-1.738,3.845-3.875,3.845
		c-2.137,0-3.875-1.725-3.875-3.845V12.036h7.75V36.438z"/>
</g>
</svg>
