<?xml version="1.0" encoding="utf-8"?>
<!-- Generator: Adobe Illustrator 22.0.1, SVG Export Plug-In . SVG Version: 6.00 Build 0)  -->
<svg version="1.1" id="Layer_1" xmlns="http://www.w3.org/2000/svg" xmlns:xlink="http://www.w3.org/1999/xlink" x="0px" y="0px"
	 viewBox="0 0 100 100" style="enable-background:new 0 0 100 100;" xml:space="preserve">
<g>
	<path d="M67.287,46.816c2.786,0,5.404-1.09,7.374-3.068L89.69,28.649c0.388-0.39,0.388-1.021,0-1.411L72.865,10.335
		c-0.375-0.377-1.043-0.377-1.418,0L56.418,25.434c-4.063,4.082-4.063,10.722,0,14.803l0.146,0.146l-6.066,5.653l-6.917-6.38
		c4.161-6.214,3.514-14.734-1.952-20.224c-4.406-4.426-14.164-9.166-21.668-9.166c-3.22,0-5.715,0.867-7.416,2.576
		c-6.39,6.418,0.618,23.235,6.56,29.205c3.008,3.022,7.008,4.686,11.263,4.686c3.21,0,6.275-0.95,8.878-2.714l6.003,6.569
		l-5.689,5.247l-0.987-0.991c-0.375-0.377-1.043-0.377-1.418,0L12.849,79.264c-2.44,2.452-2.44,6.442,0,8.895
		c1.184,1.189,2.759,1.844,4.433,1.844c0.001,0,0.001,0,0.001,0c1.675,0,3.249-0.655,4.434-1.844l24.307-24.419
		c0.388-0.39,0.388-1.021,0-1.411l-0.7-0.703l5.006-5.478l4.872,5.331l-0.846,0.85c-0.388,0.39-0.388,1.021,0,1.411l24.307,24.419
		c1.184,1.189,2.758,1.844,4.433,1.844c0,0,0,0,0.001,0c1.675,0,3.249-0.655,4.434-1.844v-0.001c2.44-2.452,2.44-6.442,0-8.894
		L63.222,54.845c-0.375-0.377-1.043-0.377-1.418,0l-0.84,0.844l-5.761-5.313l5.414-5.986C62.487,45.959,64.82,46.816,67.287,46.816z
		 M57.836,26.845l14.32-14.387L87.57,27.944L73.243,42.337c-1.591,1.599-3.706,2.479-5.956,2.479s-4.365-0.881-5.956-2.479
		l-3.495-3.511C54.547,35.523,54.547,30.148,57.836,26.845z M30.367,44.733c-3.719,0-7.215-1.455-9.845-4.097
		c-5.404-5.429-11.852-21.068-6.56-26.383c1.312-1.318,3.33-1.987,5.998-1.987c6.902,0,16.212,4.52,20.25,8.577
		c5.433,5.457,5.433,14.335,0,19.792C37.581,43.278,34.085,44.733,30.367,44.733z M20.298,86.747
		c-0.806,0.81-1.877,1.255-3.016,1.255c-1.14,0-2.21-0.446-3.016-1.255l-0.709,0.705l0.709-0.706c-1.666-1.674-1.666-4.398,0-6.072
		l23.598-23.707l6.038,6.066L20.298,86.747z M43.91,60.206l-2.939-2.952l5.626-5.189l2.376,2.6L43.91,60.206z M62.513,56.968
		L86.11,80.675c1.666,1.674,1.666,4.398,0,6.072c-0.806,0.81-1.877,1.255-3.016,1.255c-0.001,0-0.001,0-0.001,0
		c-1.139,0-2.209-0.446-3.015-1.255L56.475,63.034L62.513,56.968z M59.552,57.107l-2.939,2.952l-9.207-10.075
		c-0.004-0.005-0.005-0.011-0.01-0.016c-0.004-0.005-0.01-0.006-0.015-0.011l-6.558-7.176c0.272-0.239,0.547-0.474,0.805-0.734
		c0.257-0.258,0.487-0.533,0.723-0.804L59.552,57.107z M53.733,49.02l-1.761-1.624l6.003-5.595l1.198,1.204L53.733,49.02z"/>
	<path d="M62.17,31.078c0.257,0,0.514-0.098,0.709-0.294l10.429-10.479c0.39-0.392,0.388-1.025-0.004-1.415
		c-0.39-0.389-1.024-0.387-1.414,0.003L61.461,29.372c-0.39,0.392-0.388,1.025,0.004,1.414C61.659,30.98,61.915,31.078,62.17,31.078
		z"/>
	<path d="M65.279,34.618c0.194,0.194,0.45,0.291,0.705,0.291c0.257,0,0.514-0.098,0.709-0.294l10.429-10.479
		c0.39-0.392,0.388-1.025-0.004-1.415c-0.39-0.389-1.024-0.387-1.414,0.003L65.275,33.203
		C64.886,33.595,64.888,34.228,65.279,34.618z"/>
	<path d="M69.094,38.449c0.194,0.194,0.45,0.291,0.705,0.291c0.257,0,0.514-0.098,0.709-0.294l10.429-10.479
		c0.39-0.392,0.388-1.025-0.004-1.415c-0.39-0.389-1.024-0.387-1.414,0.003L69.09,37.034C68.7,37.426,68.702,38.059,69.094,38.449z"
		/>
</g>
</svg>
